<svg xmlns="http://www.w3.org/2000/svg" viewBox="0 0 512 512" id="flower">
  <path fill="#fed402" d="M262.53 259.63h-13.06l-51.81-145.06a79.26 79.26 0 0 1 33.26-94.25l17.41-10.66a14.7 14.7 0 0 1 15.34 0l17.41 10.66a79.26 79.26 0 0 1 33.26 94.25Z"></path>
  <path fill="#fac600" d="M281.08 20.32 263.67 9.66a14.7 14.7 0 0 0-15.34 0L241 14.15l10.08 6.17a79.26 79.26 0 0 1 33.26 94.25L241 235.91l8.47 23.72h13.06l51.81-145.06a79.26 79.26 0 0 0-33.26-94.25Z"></path>
  <path fill="#fed402" d="M262.53 252.37h-13.06l-51.81 145.06a79.26 79.26 0 0 0 33.26 94.25l17.41 10.66a14.7 14.7 0 0 0 15.34 0l17.41-10.66a79.26 79.26 0 0 0 33.26-94.25Z"></path>
  <path fill="#fac600" d="m314.34 397.43-51.81-145.06h-13.06l-5.79 16.22 40.66 113.84a79.26 79.26 0 0 1-33.26 94.25l-17.41 10.66a14.67 14.67 0 0 1-6.22 2.08c1.14.78 2.28 1.53 3.47 2.26l17.41 10.66a14.7 14.7 0 0 0 15.34 0l17.41-10.66a79.26 79.26 0 0 0 33.26-94.25Z"></path>
  <path fill="#fed402" d="M259.63 249.47v13.06l-145.06 51.81a79.26 79.26 0 0 1-94.25-33.26L9.66 263.67a14.7 14.7 0 0 1 0-15.34l10.66-17.41a79.26 79.26 0 0 1 94.25-33.26Z"></path>
  <path fill="#fac600" d="M114.57 197.66a79.26 79.26 0 0 0-94.25 33.26L9.66 248.33a14.7 14.7 0 0 0-2.08 9.12 79.25 79.25 0 0 1 92-29.79l128.84 46 31.22-11.15v-13.04Z"></path>
  <path fill="#fed402" d="M252.37 249.47v13.06l145.06 51.81a79.26 79.26 0 0 0 94.25-33.26l10.66-17.41a14.7 14.7 0 0 0 0-15.34l-10.66-17.41a79.26 79.26 0 0 0-94.25-33.26Z"></path>
  <path fill="#fac600" d="m502.34 248.33-10.66-17.41c-.73-1.19-1.48-2.33-2.26-3.47a14.67 14.67 0 0 1-2.08 6.22l-10.66 17.41a79.26 79.26 0 0 1-94.25 33.26l-113.84-40.66-16.22 5.79v13.06l145.06 51.81a79.26 79.26 0 0 0 94.25-33.26l10.66-17.41a14.7 14.7 0 0 0 0-15.34Z"></path>
  <path fill="#fd4755" d="m258.05 263.18-9.23-9.18 65.94-139.21a79.25 79.25 0 0 1 90.15-43.13l19.85 4.78a14.68 14.68 0 0 1 10.85 10.85l4.78 19.85a79.25 79.25 0 0 1-43.13 90.15Z"></path>
  <path fill="#fb2b3a" d="m440.39 107.09-4.78-19.85a14.68 14.68 0 0 0-10.85-10.85l-19.28-4.64c0 .16.09.32.13.49l4.78 19.85a79.25 79.25 0 0 1-43.13 90.15l-108.92 51.59-9.52 20.17 9.23 9.23 139.21-65.94a79.25 79.25 0 0 0 43.13-90.2Z"></path>
  <path fill="#fd4755" d="m263.18 258.05-9.18-9.23-139.26 65.94a79.25 79.25 0 0 0-43.13 90.15l4.78 19.85a14.68 14.68 0 0 0 10.85 10.85l19.85 4.78a79.25 79.25 0 0 0 90.15-43.13Z"></path>
  <path fill="#fb2b3a" d="m254 248.82-20.12 9.52-51.64 108.92a79.25 79.25 0 0 1-90.15 43.13l-19.85-4.78-.49-.13 4.64 19.28a14.68 14.68 0 0 0 10.85 10.85l19.85 4.78a79.25 79.25 0 0 0 90.15-43.13l65.94-139.21Z"></path>
  <path fill="#fd4755" d="m263.18 254-9.18 9.18-139.26-65.94a79.25 79.25 0 0 1-43.13-90.15l4.78-19.85a14.68 14.68 0 0 1 10.85-10.85l19.85-4.78a79.25 79.25 0 0 1 90.15 43.13Z"></path>
  <path fill="#fb2b3a" d="M197.24 114.74a79.25 79.25 0 0 0-90.15-43.13l-19.85 4.78a14.68 14.68 0 0 0-10.85 10.85l-3.71 15.44 4.41-1.07a79.25 79.25 0 0 1 90.15 43.13l47.26 99.76 39.5 18.68 9.23-9.23Z"></path>
  <path fill="#fd4755" d="m258.05 248.82-9.23 9.23 65.94 139.21a79.25 79.25 0 0 0 90.15 43.13l19.85-4.78a14.68 14.68 0 0 0 10.85-10.85l4.78-19.85a79.25 79.25 0 0 0-43.13-90.15Z"></path>
  <path fill="#fb2b3a" d="m397.26 314.76-139.21-65.94-9.23 9.23 9.52 20.12 108.92 51.59a79.25 79.25 0 0 1 43.13 90.15l-4.78 19.85c0 .17-.09.33-.13.49l19.28-4.64a14.68 14.68 0 0 0 10.85-10.85l4.78-19.85a79.25 79.25 0 0 0-43.13-90.15Z"></path>
  <path fill="#fed402" d="M385.4 380.53a17.5 17.5 0 1 1 0-24.75 17.51 17.51 0 0 1 0 24.75Z"></path>
  <circle cx="256" cy="256" r="51.85" fill="#26a6fe"></circle>
  <path fill="#0593fc" d="M262.94 204.62A51.85 51.85 0 0 1 226 292.85a52.87 52.87 0 0 1-6.94-.47 51.85 51.85 0 1 0 43.88-87.76Z"></path>
  <circle cx="258.28" cy="93.76" r="17.5" fill="#fd4755"></circle>
  <circle cx="256" cy="418.02" r="17.5" fill="#fd4755"></circle>
  <circle cx="93.11" cy="252.37" r="17.5" fill="#fd4755"></circle>
  <circle cx="417.81" cy="256" r="17.5" fill="#fd4755"></circle>
  <path fill="#fb2b3a" d="M424.27 239.75a17.48 17.48 0 0 1-16.25 24 17.56 17.56 0 0 1-6.46-1.24 17.5 17.5 0 1 0 22.71-22.73Z"></path>
  <path fill="#fac600" d="M379.49 351.9a17.48 17.48 0 0 1-22.71 22.73 17.5 17.5 0 1 0 22.71-22.73Z"></path>
  <circle cx="143.85" cy="138.97" r="17.5" fill="#fed402"></circle>
  <circle cx="138.97" cy="368.15" r="17.5" fill="#fed402"></circle>
  <path fill="#fac600" d="M145.44 351.9a17.48 17.48 0 0 1-22.71 22.73 17.49 17.49 0 1 0 22.71-22.73Z"></path>
  <path fill="#fb2b3a" d="M99.57 236.12a17.48 17.48 0 0 1-16.25 24 17.56 17.56 0 0 1-6.46-1.24 17.5 17.5 0 1 0 22.71-22.73Z"></path>
  <path fill="#fac600" d="M150.31 122.72a17.48 17.48 0 0 1-22.71 22.73 17.5 17.5 0 1 0 22.71-22.73Z"></path>
  <path fill="#fb2b3a" d="M264.75 77.5A17.48 17.48 0 0 1 242 100.23a17.49 17.49 0 1 0 22.75-22.73Z"></path>
  <circle cx="368.15" cy="138.97" r="17.5" fill="#fed402"></circle>
  <path fill="#fac600" d="M374.61 122.72a17.47 17.47 0 0 1-22.7 22.73 17.49 17.49 0 1 0 22.7-22.73Z"></path>
  <path d="M508.73 244.41 498.07 227A86.55 86.55 0 0 0 426 185.6a86.53 86.53 0 0 0 21.72-80.27l-4.82-19.85a22.07 22.07 0 0 0-16.38-16.38l-19.85-4.78A86.53 86.53 0 0 0 326.4 86 86.55 86.55 0 0 0 285 13.93L267.59 3.27a22.09 22.09 0 0 0-23.18 0L227 13.93A86.55 86.55 0 0 0 185.6 86a86.53 86.53 0 0 0-80.27-21.72L85.48 69.1A22.07 22.07 0 0 0 69.1 85.48l-4.78 19.85A86.53 86.53 0 0 0 86 185.6 86.55 86.55 0 0 0 13.93 227L3.27 244.41a22.09 22.09 0 0 0 0 23.18L13.93 285A86.55 86.55 0 0 0 86 326.4a86.53 86.53 0 0 0-21.72 80.27l4.78 19.85a22.07 22.07 0 0 0 16.42 16.38l19.85 4.78A86.53 86.53 0 0 0 185.6 426a86.55 86.55 0 0 0 41.4 72.07l17.41 10.66a22.06 22.06 0 0 0 23.18 0L285 498.07A86.55 86.55 0 0 0 326.4 426a86.81 86.81 0 0 0 80.27 21.72l19.85-4.78a22.07 22.07 0 0 0 16.38-16.38l4.78-19.85A86.53 86.53 0 0 0 426 326.4a86.55 86.55 0 0 0 72.07-41.4l10.66-17.41a22.09 22.09 0 0 0 0-23.18ZM321.54 118a72 72 0 0 1 81.62-39L423 83.68a7.18 7.18 0 0 1 5.32 5.32l4.77 19.85a72 72 0 0 1-39 81.62l-84.47 40a59.93 59.93 0 0 0-7.42-11.73c6.8-9.45 14.8-16.74 23.69-21.56 2.84-1.56 5.43-2.69 7.94-3.78 4.83-2.11 9.83-4.3 15.44-9.07a56.71 56.71 0 0 0 15.48-21.77 25 25 0 1 0-9.4-41.26 25 25 0 0 0-3 31.68c-2.8 8.38-7.09 15.08-12.79 19.93-3.9 3.34-7.35 4.84-11.7 6.74-2.68 1.17-5.71 2.49-9.15 4.37a87.14 87.14 0 0 0-27.44 24.27 59.37 59.37 0 0 0-9.72-5.87Zm44.41 14a10 10 0 1 1 0 14.15 10 10 0 0 1 0-14.15Zm-65.6 124a44.36 44.36 0 0 1-55.84 42.84 5.05 5.05 0 0 0-.51-.28 7.55 7.55 0 0 0-2.62-.69 44.35 44.35 0 0 1 1-84.06 7.22 7.22 0 0 0 1.09-.34 44.08 44.08 0 0 1 12.53-1.82A44.4 44.4 0 0 1 300.35 256ZM234.83 26.72l17.41-10.66a7.17 7.17 0 0 1 7.52 0l17.41 10.66a72.06 72.06 0 0 1 30.1 85.33 7.63 7.63 0 0 0-.39 1.8l-39.72 83.86c-.78-.15-1.56-.27-2.34-.39a86.88 86.88 0 0 0-2.25-36.54c-1.09-3.76-2.3-6.84-3.37-9.56-1.74-4.43-3.11-7.92-3.52-13-.59-7.46 1.11-15.22 5.05-23.13a25 25 0 1 0-15.56-2 56.77 56.77 0 0 0-4.44 26.34c.59 7.34 2.58 12.42 4.51 17.33 1 2.54 2 5.17 2.94 8.29 2.83 9.72 3.34 20.46 1.53 32-1.64.17-3.27.41-4.87.71l-39.72-83.86a7.63 7.63 0 0 0-.39-1.8 72.06 72.06 0 0 1 30.1-85.38ZM246 90.5a10 10 0 1 1 10 10 10 10 0 0 1-10-10ZM78.91 108.84 83.68 89A7.18 7.18 0 0 1 89 83.68l19.85-4.77a72.05 72.05 0 0 1 81.62 39l40 84.47a59.37 59.37 0 0 0-9.72 5.87A87.14 87.14 0 0 0 193.32 184c-3.44-1.88-6.47-3.2-9.15-4.37-4.35-1.9-7.8-3.4-11.7-6.74-5.7-4.85-10-11.55-12.79-19.92a25 25 0 0 0-3-31.69 25 25 0 1 0-9.4 41.26 56.71 56.71 0 0 0 15.48 21.77c5.61 4.77 10.61 7 15.44 9.07 2.51 1.09 5.1 2.22 7.94 3.78 8.86 4.84 16.86 12.13 23.7 21.59a59.93 59.93 0 0 0-7.42 11.73l-84.47-40a72 72 0 0 1-39.04-81.64ZM146.05 146a10 10 0 1 1 0-14.14 10 10 0 0 1 0 14.14ZM26.72 277.17l-10.66-17.41a7.17 7.17 0 0 1 0-7.52l10.66-17.41a72.05 72.05 0 0 1 85.33-30.1 7.63 7.63 0 0 0 1.8.39l83.86 39.72c-.15.78-.27 1.56-.39 2.34a86.88 86.88 0 0 0-36.54 2.25c-3.76 1.09-6.84 2.3-9.56 3.37-4.43 1.74-7.92 3.11-13 3.52-7.46.59-15.22-1.11-23.13-5a25 25 0 1 0-2 15.55 58 58 0 0 0 22.2 4.61c1.38 0 2.76-.05 4.14-.16 7.34-.59 12.42-2.58 17.33-4.51 2.54-1 5.17-2 8.29-2.94 9.72-2.83 20.46-3.34 32-1.53.17 1.64.41 3.27.71 4.87l-83.86 39.72a7.52 7.52 0 0 0-1.8.39 72.06 72.06 0 0 1-85.38-30.15ZM100.5 256a10 10 0 1 1-10-10 10 10 0 0 1 10 10Zm90 138.05a72.1 72.1 0 0 1-65 41 71 71 0 0 1-16.61-2L89 428.32a7.18 7.18 0 0 1-5.32-5.32l-4.77-19.85a72 72 0 0 1 39-81.62l84.47-40a59.37 59.37 0 0 0 5.87 9.72A87.14 87.14 0 0 0 184 318.68c-1.88 3.44-3.2 6.47-4.37 9.15-1.9 4.35-3.4 7.8-6.74 11.7-4.85 5.7-11.55 10-19.93 12.79a25 25 0 0 0-31.68 3 25 25 0 1 0 41.26 9.4 56.71 56.71 0 0 0 21.77-15.48c4.77-5.61 7-10.61 9.07-15.44 1.09-2.51 2.22-5.1 3.78-7.94 4.84-8.86 12.13-16.86 21.59-23.7a59.93 59.93 0 0 0 11.73 7.42ZM146 366a10 10 0 1 1-14.14 0 10 10 0 0 1 14.14 0Zm131.17 119.28-17.41 10.66a7.17 7.17 0 0 1-7.52 0l-17.41-10.66a72.06 72.06 0 0 1-30.1-85.28 7.63 7.63 0 0 0 .39-1.8l39.72-83.86c1.6.3 3.23.54 4.87.71 1.81 11.55 1.3 22.29-1.53 32-.91 3.12-2 5.75-2.94 8.29-1.93 4.91-3.92 10-4.51 17.33a56.77 56.77 0 0 0 4.44 26.33 25 25 0 1 0 15.56-2c-3.94-7.91-5.64-15.67-5.05-23.13.41-5.12 1.78-8.61 3.52-13 1.07-2.72 2.28-5.8 3.37-9.56a86.88 86.88 0 0 0 2.25-36.54c.78-.12 1.56-.24 2.34-.39l39.72 83.86a7.63 7.63 0 0 0 .39 1.8 72.06 72.06 0 0 1-30.1 85.24ZM256 411.5a10 10 0 1 1-10 10 10 10 0 0 1 10-10Zm177.09-8.34L428.32 423a7.18 7.18 0 0 1-5.31 5.31l-19.85 4.77a72 72 0 0 1-81.62-39l-40-84.47a59.93 59.93 0 0 0 11.73-7.42c9.44 6.81 16.73 14.81 21.55 23.7 1.56 2.84 2.69 5.43 3.78 7.94 2.11 4.83 4.3 9.83 9.07 15.44a56.71 56.71 0 0 0 21.77 15.48 25 25 0 1 0 41.26-9.4 25 25 0 0 0-31.68-3c-8.38-2.8-15.08-7.09-19.93-12.79-3.34-3.9-4.84-7.35-6.74-11.7-1.17-2.68-2.49-5.71-4.37-9.15a87.14 87.14 0 0 0-24.27-27.44 59.37 59.37 0 0 0 5.87-9.72l84.47 40a72 72 0 0 1 39.04 81.61ZM366 366a10 10 0 1 1 0 14.14 9.94 9.94 0 0 1 0-14.14Zm130-106.2-10.66 17.41A72.05 72.05 0 0 1 400 307.27a7.63 7.63 0 0 0-1.8-.39l-83.86-39.72c.3-1.6.54-3.23.71-4.87 11.55-1.81 22.3-1.3 32 1.53 3.12.91 5.75 1.95 8.29 2.94 4.91 1.93 10 3.92 17.33 4.51 1.38.11 2.76.16 4.14.16a58.07 58.07 0 0 0 22.2-4.61 25 25 0 1 0-2-15.55c-7.9 3.94-15.67 5.64-23.13 5-5.12-.41-8.61-1.78-13-3.52-2.72-1.07-5.8-2.28-9.56-3.37a86.89 86.89 0 0 0-36.54-2.25c-.12-.78-.24-1.56-.39-2.34l83.86-39.72a7.63 7.63 0 0 0 1.8-.39 72.05 72.05 0 0 1 85.33 30.1l10.66 17.41a7.17 7.17 0 0 1-.1 7.57Zm-84.5-3.8a10 10 0 1 1 10 10 10 10 0 0 1-10-10ZM256 248.5a7.5 7.5 0 1 0 7.5 7.5 7.5 7.5 0 0 0-7.5-7.5Z"></path>
</svg>
